<?xml version="1.0" standalone="no"?>
<!DOCTYPE svg PUBLIC "-//W3C//DTD SVG 20010904//EN"
 "http://www.w3.org/TR/2001/REC-SVG-20010904/DTD/svg10.dtd">
<svg version="1.0" xmlns="http://www.w3.org/2000/svg"
 width="260.000000pt" height="260.000000pt" viewBox="0 0 260.000000 260.000000"
 preserveAspectRatio="xMidYMid meet">
<metadata>
Created by potrace 1.11, written by Peter Selinger 2001-2013
</metadata>
<g transform="translate(0.000000,260.000000) scale(0.100000,-0.100000)"
fill="#000000" stroke="none">
<path d="M310 2584 c-145 -39 -257 -153 -295 -300 -14 -54 -15 -177 -13 -1010
l3 -949 23 -55 c46 -113 129 -196 242 -242 l55 -23 975 0 975 0 55 23 c113 46
196 129 242 242 l23 55 0 975 0 975 -23 55 c-46 113 -129 196 -242 242 l-55
23 -955 2 c-817 2 -963 0 -1010 -13z m1590 -435 c134 -21 234 -91 282 -194 21
-46 23 -66 26 -257 l3 -208 -139 0 -140 0 -4 163 c-4 182 -13 214 -70 238 -49
21 -132 17 -165 -7 -54 -40 -53 -30 -53 -594 0 -564 -1 -554 53 -594 34 -25
130 -29 171 -6 53 28 61 58 64 258 l4 182 139 0 139 0 0 -205 c0 -112 -5 -227
-11 -255 -22 -104 -110 -191 -228 -227 -88 -27 -295 -25 -387 4 -128 41 -199
119 -224 248 -8 42 -10 230 -8 630 4 644 1 622 83 713 90 100 270 143 465 111z
m-752 -136 l3 -123 -228 -2 -228 -3 -3 -232 -2 -233 190 0 190 0 0 -130 0
-130 -190 0 -190 0 0 -360 0 -360 -140 0 -140 0 0 850 0 850 368 -2 367 -3 3
-122z"/>
</g>
</svg>
