<?xml version="1.0" standalone="no"?>
<!DOCTYPE svg PUBLIC "-//W3C//DTD SVG 20010904//EN"
 "http://www.w3.org/TR/2001/REC-SVG-20010904/DTD/svg10.dtd">
<svg version="1.0" xmlns="http://www.w3.org/2000/svg"
 width="348.000000pt" height="348.000000pt" viewBox="0 0 348.000000 348.000000"
 preserveAspectRatio="xMidYMid meet">
<metadata>
Created by potrace 1.11, written by Peter Selinger 2001-2013
</metadata>
<g transform="translate(0.000000,348.000000) scale(0.100000,-0.100000)"
fill="#000000" stroke="none">
<path d="M1555 3344 c-11 -3 -49 -12 -85 -20 -297 -71 -535 -318 -605 -627
-21 -96 -21 -548 0 -660 16 -85 63 -213 95 -257 11 -16 20 -31 20 -35 0 -3 20
-32 44 -63 90 -117 212 -204 381 -272 88 -35 317 -52 413 -29 68 16 142 39
179 55 17 8 34 14 38 14 18 0 179 116 225 162 105 105 192 270 224 422 12 59
16 137 16 321 0 295 -11 369 -77 515 -74 165 -212 307 -375 389 -57 28 -128
58 -158 67 -54 15 -295 28 -335 18z"/>
<path d="M1525 1018 c-193 -8 -452 -37 -525 -57 -19 -5 -66 -17 -105 -26 -69
-17 -200 -54 -283 -81 -151 -49 -448 -183 -554 -250 l-38 -24 0 -277 0 -276
593 6 c325 4 1068 7 1650 7 l1057 0 0 273 0 274 -92 51 c-51 28 -124 65 -163
83 -38 17 -89 40 -112 50 -23 10 -45 19 -49 19 -4 0 -41 13 -83 29 -137 53
-338 110 -476 136 -188 35 -249 44 -360 54 -161 15 -292 17 -460 9z"/>
</g>
</svg>
